<?xml version="1.0" encoding="UTF-8" standalone="no"?><!DOCTYPE svg PUBLIC "-//W3C//DTD SVG 1.1//EN" "http://www.w3.org/Graphics/SVG/1.1/DTD/svg11.dtd"><svg width="100%" height="100%" viewBox="0 0 200 200" version="1.1" xmlns="http://www.w3.org/2000/svg" xmlns:xlink="http://www.w3.org/1999/xlink" xml:space="preserve" xmlns:serif="http://www.serif.com/" style="fill-rule:evenodd;clip-rule:evenodd;stroke-linejoin:round;stroke-miterlimit:2;"><path d="M25,175l0,-115.625l34.375,0l0,-34.375l81.25,0l0,68.75l34.375,0l0,81.25l-63.958,0l-0,-34.375l-22.084,0l0,34.375l-63.958,0Zm12.5,-12.5l21.875,0l0,-21.875l-21.875,0l0,21.875Zm0,-34.375l21.875,0l0,-21.875l-21.875,0l0,21.875Zm0,-34.375l21.875,0l0,-21.875l-21.875,0l0,21.875Zm34.375,34.375l21.875,0l0,-21.875l-21.875,0l0,21.875Zm0,-34.375l21.875,0l0,-21.875l-21.875,0l0,21.875Zm0,-34.375l21.875,0l0,-21.875l-21.875,0l0,21.875Zm34.375,68.75l21.875,0l0,-21.875l-21.875,0l0,21.875Zm0,-34.375l21.875,0l0,-21.875l-21.875,0l0,21.875Zm0,-34.375l21.875,0l0,-21.875l-21.875,0l0,21.875Zm34.375,103.125l21.875,0l0,-21.875l-21.875,0l0,21.875Zm0,-34.375l21.875,0l0,-21.875l-21.875,0l0,21.875Z" style="fill:#fff;fill-rule:nonzero;"/></svg>