<?xml version="1.0" encoding="UTF-8" standalone="no"?><!DOCTYPE svg PUBLIC "-//W3C//DTD SVG 1.1//EN" "http://www.w3.org/Graphics/SVG/1.1/DTD/svg11.dtd"><svg width="100%" height="100%" viewBox="0 0 100 100" version="1.1" xmlns="http://www.w3.org/2000/svg" xmlns:xlink="http://www.w3.org/1999/xlink" xml:space="preserve" xmlns:serif="http://www.serif.com/" style="fill-rule:evenodd;clip-rule:evenodd;stroke-linejoin:round;stroke-miterlimit:2;"><path d="M25,51.875l0,-11.708c6.125,3.458 15.042,5.666 25,5.666c9.958,0 18.875,-2.208 25,-5.666l0,5.875c0.708,-0.084 1.375,-0.209 2.083,-0.209c2.209,0 4.292,0.417 6.25,1.084l0,-17.75c0,-9.209 -14.916,-16.667 -33.333,-16.667c-18.417,0 -33.333,7.458 -33.333,16.667l-0,41.666c-0,9.209 14.958,16.667 33.333,16.667c1.417,0 2.792,0 4.167,-0.125l-0,-8.417c-1.334,0.209 -2.709,0.209 -4.167,0.209c-16.125,-0 -25,-6.25 -25,-8.334l0,-9.291c6.708,3.25 15.5,5.125 25,5.125c1.708,-0 3.375,-0.125 5.042,-0.25c0.791,-2 1.958,-3.792 3.583,-5.167c0.25,-1.292 0.667,-2.542 1.125,-3.75c-3.083,0.542 -6.375,0.833 -9.75,0.833c-10.083,0 -19.583,-2.5 -25,-6.458m25,-31.042c16.125,0 25,6.25 25,8.334c0,2.083 -8.875,8.333 -25,8.333c-16.125,0 -25,-6.25 -25,-8.333c0,-2.084 8.875,-8.334 25,-8.334m37.5,45.834l0,-2.084c0,-5.75 -4.667,-10.416 -10.417,-10.416c-5.75,-0 -10.416,4.666 -10.416,10.416l-0,2.084c-2.292,-0 -4.167,1.875 -4.167,4.166l0,16.667c0,2.292 1.875,4.167 4.167,4.167l20.833,-0c2.292,-0 4.167,-1.875 4.167,-4.167l-0,-16.667c-0,-2.291 -1.875,-4.166 -4.167,-4.166m-4.167,-0l-12.5,-0l0,-2.084c0,-3.458 2.792,-6.25 6.25,-6.25c3.459,0 6.25,2.792 6.25,6.25l0,2.084Z" style="fill:#fff;fill-rule:nonzero;"/></svg>